<?xml version="1.0" encoding="utf-8"?>
<!-- Generator: Adobe Illustrator 17.0.0, SVG Export Plug-In . SVG Version: 6.00 Build 0)  -->
<!DOCTYPE svg PUBLIC "-//W3C//DTD SVG 1.1//EN" "http://www.w3.org/Graphics/SVG/1.1/DTD/svg11.dtd">
<svg version="1.1" id="Capa_1" xmlns="http://www.w3.org/2000/svg" xmlns:xlink="http://www.w3.org/1999/xlink" x="0px" y="0px"
	 width="117.143px" height="170.456px" viewBox="0 0 117.143 170.456" enable-background="new 0 0 117.143 170.456"
	 xml:space="preserve">
<g id="Nuevo_símbolo_9">
	<g>
		
			<path fill="#09A8E9" stroke="#3C3C3B" stroke-width="2.3201" stroke-linecap="round" stroke-linejoin="round" stroke-miterlimit="10" d="
			M40.156,151.519V93.528H16.954V68.007h26.2c0,0-9.361-34.117,17.242-44.949c26.602-10.833,33.254-0.213,33.254-0.213l-0.19,25.167
			c0,0-25.462-12.459-25.462,6.545v10.728l24.179-0.087L91.868,91.61l-25.143-0.379l-0.78,60.288
			C65.945,151.519,37.836,151.191,40.156,151.519z"/>
		
			<path fill="#09A8E9" stroke="#3C3C3B" stroke-width="2.2593" stroke-linecap="round" stroke-linejoin="round" stroke-miterlimit="10" d="
			M61.392,144.623c1.424,0.217,2.881,0.214,4.326,0.167"/>
		
			<path fill="#09A8E9" stroke="#3C3C3B" stroke-width="2.2593" stroke-linecap="round" stroke-linejoin="round" stroke-miterlimit="10" d="
			M61.392,140.105c1.424,0.217,2.881,0.214,4.326,0.167"/>
		
			<path fill="#09A8E9" stroke="#3C3C3B" stroke-width="2.2593" stroke-linecap="round" stroke-linejoin="round" stroke-miterlimit="10" d="
			M61.392,135.586c1.424,0.217,2.881,0.214,4.326,0.167"/>
		
			<path fill="#09A8E9" stroke="#3C3C3B" stroke-width="2.2593" stroke-linecap="round" stroke-linejoin="round" stroke-miterlimit="10" d="
			M61.392,131.068c1.424,0.217,2.881,0.214,4.326,0.167"/>
		
			<path fill="#09A8E9" stroke="#3C3C3B" stroke-width="2.2593" stroke-linecap="round" stroke-linejoin="round" stroke-miterlimit="10" d="
			M61.392,126.549c1.424,0.217,2.881,0.214,4.326,0.167"/>
		
			<path fill="#09A8E9" stroke="#3C3C3B" stroke-width="2.2593" stroke-linecap="round" stroke-linejoin="round" stroke-miterlimit="10" d="
			M61.392,122.03c1.424,0.217,2.881,0.214,4.326,0.167"/>
		
			<path fill="#09A8E9" stroke="#3C3C3B" stroke-width="2.2593" stroke-linecap="round" stroke-linejoin="round" stroke-miterlimit="10" d="
			M61.392,117.512c1.424,0.217,2.881,0.214,4.326,0.167"/>
		
			<path fill="#09A8E9" stroke="#3C3C3B" stroke-width="2.2593" stroke-linecap="round" stroke-linejoin="round" stroke-miterlimit="10" d="
			M61.392,112.993c1.424,0.217,2.881,0.214,4.326,0.167"/>
		
			<path fill="#09A8E9" stroke="#3C3C3B" stroke-width="2.2593" stroke-linecap="round" stroke-linejoin="round" stroke-miterlimit="10" d="
			M61.392,108.475c1.424,0.217,2.881,0.214,4.326,0.167"/>
		
			<path fill="#09A8E9" stroke="#3C3C3B" stroke-width="2.2593" stroke-linecap="round" stroke-linejoin="round" stroke-miterlimit="10" d="
			M61.392,103.956c1.424,0.217,2.881,0.214,4.326,0.167"/>
		
			<path fill="#09A8E9" stroke="#3C3C3B" stroke-width="2.2593" stroke-linecap="round" stroke-linejoin="round" stroke-miterlimit="10" d="
			M61.392,99.438c1.424,0.217,2.881,0.214,4.326,0.167"/>
		
			<path fill="#09A8E9" stroke="#3C3C3B" stroke-width="2.2593" stroke-linecap="round" stroke-linejoin="round" stroke-miterlimit="10" d="
			M61.392,94.919c1.424,0.217,2.881,0.214,4.326,0.167"/>
		
			<path fill="#09A8E9" stroke="#3C3C3B" stroke-width="2.2593" stroke-linecap="round" stroke-linejoin="round" stroke-miterlimit="10" d="
			M57.512,31.212c-8.032,8.44-10.764,21.575-9.326,33.063"/>
		
			<path fill="#09A8E9" stroke="#3C3C3B" stroke-width="2.2593" stroke-linecap="round" stroke-linejoin="round" stroke-miterlimit="10" d="
			M82.767,22.7c1.242-0.137,2.52,0.104,3.603,0.742"/>
		
			<path fill="#09A8E9" stroke="#3C3C3B" stroke-width="2.2593" stroke-linecap="round" stroke-linejoin="round" stroke-miterlimit="10" d="
			M85.787,87.482c1.797,0.299,3.772,0.276,5.672,0.236"/>
		
			<line fill="#09A8E9" stroke="#3C3C3B" stroke-width="2.3201" stroke-linecap="round" stroke-linejoin="round" stroke-miterlimit="10" x1="87.719" y1="84.248" x2="90.039" y2="84.248"/>
		
			<path fill="#09A8E9" stroke="#3C3C3B" stroke-width="2.2593" stroke-linecap="round" stroke-linejoin="round" stroke-miterlimit="10" d="
			M85.787,79.682c1.509,0.278,3.199,0.123,4.49-0.473"/>
		
			<path fill="#09A8E9" stroke="#3C3C3B" stroke-width="2.2593" stroke-linecap="round" stroke-linejoin="round" stroke-miterlimit="10" d="
			M85.551,76.609c1.409-0.073,2.887-0.237,4.254-0.473"/>
		
			<line fill="#09A8E9" stroke="#3C3C3B" stroke-width="2.3201" stroke-linecap="round" stroke-linejoin="round" stroke-miterlimit="10" x1="85.399" y1="74.967" x2="90.039" y2="74.967"/>
		
			<path fill="#09A8E9" stroke="#3C3C3B" stroke-width="2.2593" stroke-linecap="round" stroke-linejoin="round" stroke-miterlimit="10" d="
			M86.023,69.755c2.047,0.094,4.117-0.027,6.145-0.236"/>
		
			<path fill="#09A8E9" stroke="#3C3C3B" stroke-width="2.2593" stroke-linecap="round" stroke-linejoin="round" stroke-miterlimit="10" d="
			M87.678,42.337c1.397,0.26,2.986,0.088,4.254-0.473"/>
		
			<path fill="#09A8E9" stroke="#3C3C3B" stroke-width="2.2593" stroke-linecap="round" stroke-linejoin="round" stroke-miterlimit="10" d="
			M86.969,39.264c1.657,0.102,3.942,0.004,5.436-0.237"/>
		
			<path fill="#09A8E9" stroke="#3C3C3B" stroke-width="2.2593" stroke-linecap="round" stroke-linejoin="round" stroke-miterlimit="10" d="
			M87.206,35.483c1.352,0.207,2.92,0.12,4.254-0.237"/>
		
			<path fill="#09A8E9" stroke="#3C3C3B" stroke-width="2.2593" stroke-linecap="round" stroke-linejoin="round" stroke-miterlimit="10" d="
			M87.442,32.647c1.342-0.015,3.225-0.227,4.254-0.473"/>
		
			<path fill="#09A8E9" stroke="#3C3C3B" stroke-width="2.2593" stroke-linecap="round" stroke-linejoin="round" stroke-miterlimit="10" d="
			M87.914,29.337c1.177,0.281,2.631,0.179,3.545-0.236"/>
		
			<path fill="#09A8E9" stroke="#3C3C3B" stroke-width="2.2593" stroke-linecap="round" stroke-linejoin="round" stroke-miterlimit="10" d="
			M89.332,26.028c1.06,0.247,2.209,0.241,3.309,0"/>
		
			<path fill="#09A8E9" stroke="#3C3C3B" stroke-width="2.2593" stroke-linecap="round" stroke-linejoin="round" stroke-miterlimit="10" d="
			M61.916,91.028c1.888-0.136,3.837-0.057,5.672,0.236"/>
		
			<line fill="#09A8E9" stroke="#3C3C3B" stroke-width="2.3201" stroke-linecap="round" stroke-linejoin="round" stroke-miterlimit="10" x1="59.877" y1="149.212" x2="64.517" y2="149.212"/>
		
			<path fill="#09A8E9" stroke="#3C3C3B" stroke-width="2.2593" stroke-linecap="round" stroke-linejoin="round" stroke-miterlimit="10" d="
			M21.97,88.9c0.024-4.415-0.319-8.825-0.236-13.236"/>
		
			<path fill="#09A8E9" stroke="#3C3C3B" stroke-width="2.2593" stroke-linecap="round" stroke-linejoin="round" stroke-miterlimit="10" d="
			M27.879,90.082c3.37,0.362,6.767,0.234,10.163,0.236"/>
		
			<path fill="#09A8E9" stroke="#3C3C3B" stroke-width="2.2593" stroke-linecap="round" stroke-linejoin="round" stroke-miterlimit="10" d="
			M44.897,141.845c-0.005-6.863,0.512-13.696,0-20.564"/>
		
			<path fill="#09A8E9" stroke="#3C3C3B" stroke-width="2.2593" stroke-linecap="round" stroke-linejoin="round" stroke-miterlimit="10" d="
			M44.897,115.136c0.237-2.162,0.178-4.424,0.473-6.618"/>
	</g>
</g>
</svg>
