<?xml version="1.0" encoding="utf-8"?>
<!-- Generator: Adobe Illustrator 17.0.0, SVG Export Plug-In . SVG Version: 6.00 Build 0)  -->
<!DOCTYPE svg PUBLIC "-//W3C//DTD SVG 1.1//EN" "http://www.w3.org/Graphics/SVG/1.1/DTD/svg11.dtd">
<svg version="1.1" id="Capa_1" xmlns="http://www.w3.org/2000/svg" xmlns:xlink="http://www.w3.org/1999/xlink" x="0px" y="0px"
	 width="117.143px" height="170.456px" viewBox="0 0 117.143 170.456" enable-background="new 0 0 117.143 170.456"
	 xml:space="preserve">
<g id="Nuevo_símbolo_9">
	<g>
		<path fill="#F90000" stroke="#000000" stroke-width="1.1859" stroke-miterlimit="10" d="M42.93,72.929
			c0,0-18.152,59.147-9.228,62.02c8.925,2.873,20.724-29.497,19.968-36.304c0.045,0.4,6.515,1.25,6.959,1.32
			c4.976,0.792,10.081,1.24,15.102,0.616c15.041-1.869,23.574-14.696,25.361-28.951c0.581-4.633,0.488-9.322-0.022-13.956
			c-0.485-4.403-0.838-9.84-2.434-13.992c-6.204-16.135-20.979-26.8-38.41-25.368c-11.273,0.925-22.211,4.599-31.222,11.566
			c-3.426,2.649-6.604,6.201-8.731,9.995c-2.34,4.172-3.595,10.199-4.269,14.9c-0.653,4.546-0.4,9.131,0.735,13.579
			c1.114,4.369,4.074,14.647,9.257,16.149c1.411,0.41,3.989-0.466,4.68-1.896c2.177-4.504-0.146-8.238-1.651-12.47
			c-1.522-4.279-0.189-11.592,1.284-15.721c1.775-4.977,5.162-9.295,9.378-12.447c7.823-5.85,18.323-7.133,27.369-3.476
			c4.555,1.841,10.013,5.355,13.038,9.313c2.846,3.725,4.525,10.817,4.886,15.419c0.367,4.675-0.848,9.167-2.924,13.327
			c-2.88,5.772-7.332,14.617-14.793,14.967c-5.693,0.266-11.932-5.476-12.824-10.836c-0.942-5.662,2.202-11.202,4.48-16.172
			c1.82-3.971,4.82-10.32,2.623-14.653c-3.867-7.628-17.565-0.706-20.964,3.89c-2.151,2.908-2.923,6.957-2.656,10.504
			c0.131,1.742,0.445,3.327,1.295,4.867C39.408,69.463,42.8,73.352,42.93,72.929z"/>
		<path fill="#F90000" stroke="#000000" stroke-width="1.1859" stroke-miterlimit="10" d="M37.301,126.838
			c1.825,0.332,3.702,0.825,5.505,1.322"/>
		<path fill="#F90000" stroke="#000000" stroke-width="1.1859" stroke-miterlimit="10" d="M40.383,121.773
			c1.244,0.378,2.492,0.745,3.743,1.101"/>
		<path fill="#F90000" stroke="#000000" stroke-width="1.1859" stroke-miterlimit="10" d="M41.705,116.93
			c2.191,0.182,4.308,0.866,6.385,1.541"/>
		<path fill="#F90000" stroke="#000000" stroke-width="1.1859" stroke-miterlimit="10" d="M44.347,112.085
			c1.491,0.653,3.065,1.178,4.624,1.541"/>
		<path fill="#F90000" stroke="#000000" stroke-width="1.1859" stroke-miterlimit="10" d="M46.989,105.039
			c1.716,0.367,3.381,0.997,4.844,1.983"/>
		<path fill="#F90000" stroke="#000000" stroke-width="1.1859" stroke-miterlimit="10" d="M48.97,100.415
			c1.156,0.693,2.331,1.354,3.523,1.982"/>
		<path fill="#F90000" stroke="#000000" stroke-width="1.1859" stroke-miterlimit="10" d="M94.989,78.398
			c5.035-10.501,0.595-30.112-4.845-39.853"/>
		<path fill="#F90000" stroke="#000000" stroke-width="1.1859" stroke-miterlimit="10" d="M63.062,25.554
			c7.253-1.31,12.821,1.729,16.734,7.926"/>
	</g>
</g>
</svg>
