<?xml version="1.0" encoding="utf-8"?>
<!-- Generator: Adobe Illustrator 17.0.0, SVG Export Plug-In . SVG Version: 6.00 Build 0)  -->
<!DOCTYPE svg PUBLIC "-//W3C//DTD SVG 1.1//EN" "http://www.w3.org/Graphics/SVG/1.1/DTD/svg11.dtd">
<svg version="1.1" id="Capa_1" xmlns="http://www.w3.org/2000/svg" xmlns:xlink="http://www.w3.org/1999/xlink" x="0px" y="0px"
	 width="154.286px" height="170.456px" viewBox="0 0 154.286 170.456" enable-background="new 0 0 154.286 170.456"
	 xml:space="preserve">
<g id="Nuevo_símbolo_9">
	<g>
		
			<path fill="#09C6E9" stroke="#3C3C3B" stroke-width="4.1471" stroke-linecap="round" stroke-linejoin="round" stroke-miterlimit="10" d="
			M19.889,37.161c0,0,29.344,30.329,52.77,27.371c0,0-3.329-12.7,6.164-22.192c9.492-9.494,15.781-11.344,26.631-6.659
			c10.851,4.687,22.44,5.908,24.413-2.47c0,0,2.467,8.638-3.452,13.569c0,0,8.63-4.686,12.082-1.48c0,0-13.071,9.527-14.304,19.435
			c-1.231,9.908-4.191,43.445-31.562,59.474c-27.371,16.025-58.196,17.262-80.388,0c0,0,26.387,1.972,34.77-8.88
			c0,0-20.715-7.642-23.92-21.698c0,0,6.657,4.189,14.302,2.958c0,0-22.933-14.056-23.178-29.097c0,0,6.657,5.425,13.562,3.453
			C27.779,70.945,10.766,54.421,19.889,37.161z"/>
		
			<path fill="#09C6E9" stroke="#3C3C3B" stroke-width="2.7647" stroke-linecap="round" stroke-linejoin="round" stroke-miterlimit="10" d="
			M24.554,78.689c2.109,4.34,9.461,9.071,13.644,11.939"/>
		
			<path fill="#09C6E9" stroke="#3C3C3B" stroke-width="2.7647" stroke-linecap="round" stroke-linejoin="round" stroke-miterlimit="10" d="
			M38.767,104.557c3.436,2.258,7.336,2.833,11.371,3.127"/>
		
			<path fill="#09C6E9" stroke="#3C3C3B" stroke-width="2.7647" stroke-linecap="round" stroke-linejoin="round" stroke-miterlimit="10" d="
			M23.133,53.959c0.707,3.95,4.097,8.44,7.959,9.664"/>
		
			<path fill="#09C6E9" stroke="#3C3C3B" stroke-width="2.7647" stroke-linecap="round" stroke-linejoin="round" stroke-miterlimit="10" d="
			M114.379,76.415c1.941,1.04,3.866,2.194,5.685,3.411"/>
		
			<path fill="#09C6E9" stroke="#3C3C3B" stroke-width="2.7647" stroke-linecap="round" stroke-linejoin="round" stroke-miterlimit="10" d="
			M113.527,81.247c1.354,0.904,4.887,2.499,6.822,3.98"/>
		
			<path fill="#09C6E9" stroke="#3C3C3B" stroke-width="2.7647" stroke-linecap="round" stroke-linejoin="round" stroke-miterlimit="10" d="
			M112.958,86.08c2.196,0.861,4.26,2.132,5.969,3.695"/>
		
			<path fill="#09C6E9" stroke="#3C3C3B" stroke-width="2.7647" stroke-linecap="round" stroke-linejoin="round" stroke-miterlimit="10" d="
			M109.547,91.765c2.334,0.865,4.875,1.711,6.822,3.411"/>
		
			<path fill="#09C6E9" stroke="#3C3C3B" stroke-width="2.7647" stroke-linecap="round" stroke-linejoin="round" stroke-miterlimit="10" d="
			M108.694,95.744c2.422,0.9,5.315,1.558,6.538,3.696"/>
		
			<path fill="#09C6E9" stroke="#3C3C3B" stroke-width="2.7647" stroke-linecap="round" stroke-linejoin="round" stroke-miterlimit="10" d="
			M106.704,98.871c2.462,1.174,5.087,2.48,6.822,4.549"/>
		
			<path fill="#09C6E9" stroke="#3C3C3B" stroke-width="2.7647" stroke-linecap="round" stroke-linejoin="round" stroke-miterlimit="10" d="
			M103.293,104.557c1.856,1.066,3.656,2.202,5.401,3.411"/>
		
			<path fill="#09C6E9" stroke="#3C3C3B" stroke-width="2.7647" stroke-linecap="round" stroke-linejoin="round" stroke-miterlimit="10" d="
			M98.177,108.82c2.605,1.232,5.254,2.431,7.675,3.98"/>
		
			<path fill="#09C6E9" stroke="#3C3C3B" stroke-width="2.7647" stroke-linecap="round" stroke-linejoin="round" stroke-miterlimit="10" d="
			M94.197,114.222c1.442,0.949,3.18,1.972,4.832,2.842"/>
		
			<path fill="#09C6E9" stroke="#3C3C3B" stroke-width="2.7647" stroke-linecap="round" stroke-linejoin="round" stroke-miterlimit="10" d="
			M90.786,117.064c2.25,0.662,4.373,1.725,6.254,3.127"/>
		
			<path fill="#09C6E9" stroke="#3C3C3B" stroke-width="2.7647" stroke-linecap="round" stroke-linejoin="round" stroke-miterlimit="10" d="
			M85.953,120.475c0.95,1.536,3.575,3.538,5.685,4.833"/>
		
			<path fill="#09C6E9" stroke="#3C3C3B" stroke-width="2.7647" stroke-linecap="round" stroke-linejoin="round" stroke-miterlimit="10" d="
			M80.837,122.464c1.013,1.135,2.782,2.67,4.264,3.696"/>
		
			<path fill="#09C6E9" stroke="#3C3C3B" stroke-width="2.7647" stroke-linecap="round" stroke-linejoin="round" stroke-miterlimit="10" d="
			M76.005,123.318c1.137,1.617,2.365,3.561,3.411,5.401"/>
		
			<path fill="#09C6E9" stroke="#3C3C3B" stroke-width="2.7647" stroke-linecap="round" stroke-linejoin="round" stroke-miterlimit="10" d="
			M71.456,125.592c1.328,1.861,3.105,3.496,4.833,5.116"/>
		
			<path fill="#09C6E9" stroke="#3C3C3B" stroke-width="2.7647" stroke-linecap="round" stroke-linejoin="round" stroke-miterlimit="10" d="
			M68.045,128.15c0.475,1.78,1.875,3.334,3.696,4.264"/>
		
			<path fill="#09C6E9" stroke="#3C3C3B" stroke-width="2.7647" stroke-linecap="round" stroke-linejoin="round" stroke-miterlimit="10" d="
			M57.244,132.13c0.654,1.002,1.484,2.038,2.274,2.842"/>
		
			<path fill="#09C6E9" stroke="#3C3C3B" stroke-width="2.7647" stroke-linecap="round" stroke-linejoin="round" stroke-miterlimit="10" d="
			M61.223,131.276c1.077,1.236,2.686,2.518,4.264,3.411"/>
		
			<path fill="#09C6E9" stroke="#3C3C3B" stroke-width="2.7647" stroke-linecap="round" stroke-linejoin="round" stroke-miterlimit="10" d="
			M50.422,133.266c1.115,1.297,2.28,2.656,3.411,3.98"/>
		
			<path fill="#09C6E9" stroke="#3C3C3B" stroke-width="2.7647" stroke-linecap="round" stroke-linejoin="round" stroke-miterlimit="10" d="
			M116.369,68.456c1.794,0.232,3.497,1.042,4.832,2.274"/>
		
			<path fill="#09C6E9" stroke="#3C3C3B" stroke-width="2.7647" stroke-linecap="round" stroke-linejoin="round" stroke-miterlimit="10" d="
			M118.643,64.477c1.33,0.4,2.694,0.887,3.98,1.421"/>
	</g>
</g>
</svg>
